<svg id="Livello_1" data-name="Livello 1" xmlns="http://www.w3.org/2000/svg" viewBox="0 0 1210.22 1220.09">
  <title>logo</title>
  <g>
    <path d="M1078.45,880.16V459.68a8.38,8.38,0,0,0-8.37-8.38H917.77L748.7,195.62a8.43,8.43,0,0,0-1.91-2,9,9,0,0,0-5.68-2H140.43a9,9,0,0,0-6.19,2.46,8.18,8.18,0,0,0-2.56,5.93l.37,337.81a8.57,8.57,0,0,0,8.75,8.36H296.29v.55L151,1017.61a8.37,8.37,0,0,0,3.49,9.56,8.24,8.24,0,0,0,3.69,1.25,7.71,7.71,0,0,0,1.07.08,8.62,8.62,0,0,0,1.24-.09L1071.4,889.67A8.37,8.37,0,0,0,1078.45,880.16Zm-766.93,8.37H967.67L184.32,1007.84ZM1061.7,468.05V871.78H313V549.2l.84-2.76H740.82a9.36,9.36,0,0,0,9-8.67V468.05ZM749.86,451.3V227.75L897.67,451.3Zm-600.67-243H732.36V529.4H149.55Zm147.1,395.2V879.88L176.25,993Z" fill="#262b60"/>
    <g>
      <path d="M219.25,389.75c0,16.56,12.88,23,27.51,23,9.57,0,24.2-2.77,24.2-15.49,0-13.42-18.63-15.68-36.92-20.55-18.45-4.88-37.09-12-37.09-35.36,0-25.42,24-37.6,46.5-37.6,25.94,0,49.8,11.31,49.8,40.05H266.78c-.87-15-11.49-18.82-24.56-18.82-8.7,0-18.8,3.66-18.8,14.11,0,9.58,5.92,10.8,37.1,18.82,9.05,2.26,36.91,8,36.91,36.21,0,22.81-17.93,39.88-51.72,39.88-27.51,0-53.29-13.58-52.94-44.24Z" fill="#262b60"/>
      <path d="M331.45,392c.69,15.67,8.36,22.8,22.12,22.8,9.92,0,17.93-6.09,19.5-11.67h21.77c-7,21.25-21.77,30.3-42.15,30.3-28.38,0-46-19.5-46-47.35,0-27,18.63-47.54,46-47.54,30.65,0,45.46,25.76,43.71,53.46Zm40.22-15.69C369.41,363.82,364,357.2,352,357.2c-15.67,0-20.19,12.18-20.54,19.14Z" fill="#262b60"/>
      <path d="M411.09,341H434.6v12.54h.52a32.09,32.09,0,0,1,27.52-15c26.29,0,32.91,14.78,32.91,37.07V431H470.82V380.19c0-14.81-4.35-22.12-15.85-22.12-13.41,0-19.15,7.48-19.15,25.76V431H411.09Z" fill="#262b60"/>
      <path d="M508.83,412.4l46.85-52.77H512.32V341h75.93v18.63L541.4,412.4h50.16V431H508.83Z" fill="#262b60"/>
      <path d="M603.8,368.69c1.39-23.16,22.11-30.12,42.31-30.12,17.94,0,39.53,4,39.53,25.59V411c0,8.19.87,16.37,3.13,20H663.7a37.17,37.17,0,0,1-1.74-8.71c-7.84,8.18-19.33,11.14-30.31,11.14-17,0-30.64-8.52-30.64-27,0-20.37,15.32-25.25,30.64-27.35,15.16-2.26,29.26-1.73,29.26-11.84,0-10.62-7.31-12.18-16-12.18-9.4,0-15.5,3.83-16.37,13.58ZM660.91,387c-4.18,3.66-12.88,3.83-20.54,5.22-7.67,1.57-14.63,4.17-14.63,13.24,0,9.22,7.14,11.48,15.14,11.48,19.33,0,20-15.33,20-20.72Z" fill="#262b60"/>
    </g>
    <g>
      <path d="M425,629.68h27.17l51.9,83.41h.35V629.68H530V754H502.67L451,670.78h-.35V754H425Z" fill="#262b60"/>
      <path d="M595.22,661.55c28.38,0,46.67,18.81,46.67,47.55,0,28.55-18.29,47.35-46.67,47.35-28.21,0-46.5-18.8-46.5-47.35C548.72,680.36,567,661.55,595.22,661.55Zm0,76.27c16.89,0,21.94-14.45,21.94-28.72,0-14.47-5-28.91-21.94-28.91-16.72,0-21.77,14.44-21.77,28.91C573.45,723.37,578.5,737.82,595.22,737.82Z" fill="#262b60"/>
      <path d="M659,727.2h27.35V754H659Z" fill="#e05213"/>
      <path d="M707.1,664h23.33v12.18h.35c6.44-9.22,15.85-14.62,27.52-14.62,11.31,0,21.42,4.17,26.3,15,5.22-7.85,14.62-15,27.16-15,19.15,0,32.91,8.89,32.91,32.22V754H820V703c0-12-1.05-21.94-15.16-21.94-13.92,0-16.54,11.49-16.54,22.81V754H763.52v-50.5c0-10.45.7-22.47-15-22.47-4.88,0-16.72,3.14-16.72,20.73V754H707.1Z" fill="#262b60"/>
      <path d="M884.64,715c.7,15.67,8.36,22.8,22.12,22.8,9.92,0,17.93-6.09,19.5-11.67H948c-7,21.25-21.77,30.3-42.15,30.3-28.38,0-46-19.5-46-47.35,0-27,18.64-47.55,46-47.55,30.66,0,45.46,25.77,43.72,53.47Zm40.22-15.69c-2.26-12.52-7.65-19.14-19.68-19.14-15.67,0-20.19,12.18-20.54,19.14Z" fill="#262b60"/>
    </g>
  </g>
</svg>
